<?xml version="1.0" standalone="no"?>
<!DOCTYPE svg PUBLIC "-//W3C//DTD SVG 20010904//EN"
 "http://www.w3.org/TR/2001/REC-SVG-20010904/DTD/svg10.dtd">
<svg version="1.0" xmlns="http://www.w3.org/2000/svg"
 width="548.000000pt" height="561.000000pt" viewBox="0 0 548.000000 561.000000"
 preserveAspectRatio="xMidYMid meet">
<metadata>
Created by potrace 1.13, written by Peter Selinger 2001-2015
</metadata>
<g transform="translate(0.000000,561.000000) scale(0.100000,-0.100000)"
fill="#000000" stroke="none">
<path d="M1940 5600 c13 -8 11 -11 -7 -16 -26 -7 -30 -26 -8 -44 8 -7 15 -16
15 -21 0 -10 -70 -30 -82 -23 -4 3 -8 -2 -8 -10 0 -9 -6 -16 -14 -16 -8 0 -17
-7 -20 -16 -3 -8 -11 -12 -17 -8 -7 4 -17 0 -23 -8 -6 -8 -19 -17 -30 -21 -11
-4 -16 -13 -12 -22 4 -10 -1 -15 -15 -15 -11 0 -18 -4 -14 -9 3 -6 -6 -20 -20
-33 -14 -13 -27 -35 -30 -48 -5 -25 -15 -36 -69 -75 -16 -11 -34 -25 -41 -32
-6 -6 -28 -20 -48 -31 -34 -18 -65 -42 -160 -125 -18 -16 -39 -26 -49 -23 -10
2 -16 1 -13 -3 2 -5 -20 -25 -49 -45 -30 -21 -57 -43 -59 -50 -8 -21 -127
-107 -138 -101 -5 4 -8 1 -7 -7 2 -7 -3 -12 -9 -11 -7 2 -13 -3 -13 -10 0 -6
-20 -26 -43 -44 -23 -18 -60 -49 -83 -70 -46 -43 -71 -61 -96 -69 -10 -4 -18
-13 -18 -20 0 -20 10 -17 37 8 13 12 23 17 23 10 0 -6 -13 -20 -29 -32 -26
-18 -31 -19 -39 -5 -5 11 -9 -8 -10 -55 -2 -58 -7 -79 -27 -108 -14 -20 -25
-50 -25 -67 0 -16 -4 -46 -9 -65 -5 -19 -12 -51 -14 -70 -7 -49 -18 -89 -33
-119 -8 -14 -14 -31 -14 -38 0 -6 -13 -41 -29 -77 -28 -62 -30 -72 -29 -195 1
-128 0 -132 -27 -167 l-27 -36 -16 33 c-9 18 -33 51 -54 72 -21 22 -38 44 -38
48 0 5 -9 13 -20 19 -11 6 -20 17 -20 25 0 8 -6 15 -13 15 -8 0 -22 50 -41
150 -16 83 -32 150 -37 150 -5 0 -9 16 -9 35 0 19 -4 35 -10 35 -5 0 -10 11
-10 25 0 14 -4 25 -9 25 -5 0 -19 20 -31 44 -11 24 -27 47 -35 50 -8 3 -15 12
-15 21 0 8 -7 15 -15 15 -8 0 -12 6 -10 13 3 6 -7 25 -21 40 -14 16 -27 35
-28 43 -1 8 -10 20 -19 26 -11 9 -21 40 -28 93 -6 44 -15 87 -20 95 -5 8 -9
-132 -9 -318 0 -380 7 -430 67 -490 18 -18 33 -40 33 -49 0 -8 18 -33 40 -54
22 -22 40 -43 40 -49 0 -5 3 -10 8 -10 15 -1 82 -69 82 -84 0 -9 4 -16 10 -16
5 0 13 -18 16 -40 4 -22 11 -43 15 -46 5 -3 9 -36 9 -75 0 -38 4 -69 10 -69 5
0 12 -12 16 -27 3 -16 17 -51 30 -80 13 -28 24 -61 24 -72 0 -12 5 -21 10 -21
6 0 10 -7 10 -15 0 -8 9 -23 20 -32 11 -10 20 -22 20 -28 0 -6 9 -16 20 -23
11 -7 20 -21 20 -31 0 -10 16 -33 35 -50 21 -18 35 -39 35 -53 0 -13 3 -40 6
-61 3 -20 2 -43 -3 -50 -4 -6 -7 -28 -5 -47 5 -59 1 -134 -7 -140 -13 -9 -19
-36 -11 -50 5 -9 1 -24 -11 -41 -12 -17 -15 -30 -9 -34 6 -4 7 -22 4 -44 -3
-20 -1 -55 5 -78 12 -45 5 -84 -11 -61 -7 9 -7 5 -2 -12 4 -14 8 -53 8 -87 1
-34 5 -65 9 -69 4 -4 7 -15 7 -24 0 -10 6 -23 14 -29 15 -12 27 -71 15 -71
-20 0 -14 -32 11 -61 16 -19 34 -39 40 -46 5 -7 10 -15 10 -19 0 -4 14 -36 30
-71 18 -37 30 -79 30 -103 0 -22 5 -40 10 -40 6 0 10 -12 10 -26 0 -14 4 -23
10 -19 6 4 10 -6 11 -22 0 -15 4 -37 9 -48 l9 -20 1 20 1 20 9 -20 c12 -28 12
-95 0 -95 -5 0 -10 -15 -10 -33 0 -21 -8 -41 -20 -52 -11 -10 -20 -28 -20 -41
0 -12 -5 -24 -10 -26 -6 -2 -13 -50 -16 -108 -3 -58 -7 -116 -9 -130 -2 -14
-4 -35 -4 -47 -1 -16 -7 -23 -22 -23 -17 0 -19 -4 -13 -22 6 -19 4 -21 -7 -11
-12 10 -19 3 -41 -35 l-27 -48 -58 3 c-32 2 -82 5 -112 8 -30 2 -63 -1 -73 -6
-12 -6 -18 -6 -18 1 0 19 -45 10 -58 -11 -11 -16 -20 -20 -45 -16 -32 5 -127
-21 -127 -35 0 -5 -6 -8 -13 -8 -7 0 -25 -6 -40 -12 l-27 -13 0 -162 c0 -143
2 -163 16 -163 12 0 15 -7 12 -29 -3 -20 1 -32 14 -40 10 -6 18 -18 18 -26 0
-8 5 -15 10 -15 6 0 10 5 10 10 0 13 73 2 78 -11 2 -5 22 -6 46 -3 32 5 45 2
56 -11 14 -17 12 -18 -18 -13 -18 2 -35 1 -38 -3 -4 -8 5 -11 75 -25 15 -3 28
1 37 13 13 17 15 17 28 1 7 -10 25 -18 39 -18 14 0 29 -5 32 -10 3 -6 15 -10
26 -10 10 0 20 -6 21 -12 3 -26 4 -33 12 -55 4 -13 11 -23 17 -23 5 0 6 -37 2
-90 l-6 -90 395 0 395 0 12 52 c7 29 12 60 12 68 1 21 30 84 42 92 15 9 -12
40 -30 34 -20 -8 -16 10 10 39 20 24 24 25 56 14 27 -9 36 -9 39 -1 5 17 22
15 22 -3 0 -8 -4 -15 -9 -15 -5 0 -12 -15 -15 -32 -3 -18 -13 -46 -22 -63 -17
-32 -32 -85 -41 -147 l-5 -38 200 0 c110 0 214 3 232 7 l33 6 -7 60 c-4 40
-13 68 -26 82 -25 27 -26 57 -1 79 16 15 17 22 8 47 -9 22 -9 34 0 48 7 11 15
43 19 71 8 58 28 74 53 43 15 -20 61 -34 108 -34 11 1 24 -6 27 -14 3 -8 15
-15 26 -15 12 0 19 -4 16 -9 -3 -5 1 -12 10 -15 8 -3 13 -10 10 -15 -4 -5 1
-17 10 -25 13 -13 14 -20 4 -31 -7 -8 -10 -22 -6 -30 3 -8 1 -15 -4 -15 -6 0
-10 -4 -10 -10 0 -5 9 -10 20 -10 13 0 24 -10 30 -25 5 -14 15 -25 21 -25 6 0
9 -7 5 -15 -3 -9 3 -20 14 -27 17 -11 17 -13 2 -24 -15 -11 -15 -14 -1 -31 8
-10 20 -30 27 -46 l12 -27 221 2 222 1 -69 23 c-43 13 -70 28 -72 38 -5 21 10
20 69 -5 39 -17 53 -19 62 -10 9 10 8 15 -5 25 -10 7 -18 16 -18 19 0 3 8 7
18 9 17 4 -83 38 -112 38 -9 0 -16 4 -16 9 0 14 48 22 86 15 28 -5 33 -4 28 9
-6 17 -44 30 -44 16 0 -5 -7 -9 -15 -9 -16 0 -20 12 -7 24 4 4 7 11 7 14 1 4
5 18 9 31 7 22 12 23 55 16 44 -7 91 -12 139 -14 13 0 20 -6 17 -11 -3 -6 6
-15 21 -20 20 -8 29 -7 38 4 6 8 22 17 36 21 25 8 25 8 6 -14 l-19 -21 36 0
c21 0 37 -4 37 -10 0 -5 4 -10 10 -10 5 0 9 3 7 8 -1 4 1 8 6 10 4 1 7 0 7 -3
0 -3 0 -9 0 -14 0 -5 -13 -12 -30 -16 -26 -6 -29 -10 -24 -32 6 -23 4 -25 -15
-20 -13 3 -28 -1 -37 -11 -15 -15 -15 -16 1 -22 14 -5 12 -8 -9 -20 -31 -16
-34 -30 -6 -30 11 0 20 -5 20 -10 0 -16 -31 -24 -40 -10 -5 7 -10 8 -14 2 -11
-18 25 -22 228 -22 190 0 204 1 221 20 10 11 24 20 31 20 7 0 16 9 19 20 3 11
15 25 26 30 24 13 25 36 2 49 -10 6 -13 11 -6 11 6 0 15 9 18 21 8 24 41 60
48 52 12 -11 46 18 40 34 -4 11 -2 14 8 11 8 -3 29 10 47 28 24 25 42 34 66
34 22 0 36 6 40 16 12 30 28 3 21 -37 -6 -34 -4 -39 13 -39 34 0 46 -25 31
-62 -8 -18 -12 -37 -10 -43 1 -5 2 -45 2 -88 l-1 -77 94 0 95 0 7 51 c7 55 19
50 29 -13 6 -34 10 -38 36 -38 l30 0 -41 77 c-22 42 -40 85 -40 95 0 12 -7 18
-25 18 -24 0 -45 25 -45 54 0 9 7 16 16 16 10 0 14 6 10 18 -11 37 -26 136
-21 140 12 12 102 -97 147 -178 47 -84 72 -125 80 -128 4 -2 8 -11 8 -20 0
-28 43 -73 59 -63 11 7 11 15 3 40 -10 29 -9 33 12 41 14 5 26 20 31 37 10 41
23 52 66 59 21 4 44 13 50 20 6 8 20 14 31 14 10 0 21 7 24 15 10 25 71 19 89
-9 28 -42 11 -69 -66 -107 l-69 -34 0 -46 c0 -58 1 -59 183 -59 122 0 138 2
143 18 3 9 10 26 15 37 12 26 -13 177 -35 210 -14 21 -44 99 -51 130 -1 6 -7
30 -14 55 -8 28 -11 70 -7 115 3 38 5 86 4 105 -5 93 -1 130 20 171 12 24 30
64 40 89 15 37 28 50 68 70 27 14 58 33 69 42 11 9 26 18 34 20 7 2 27 15 45
31 17 15 34 27 39 27 4 0 20 11 35 25 15 14 32 25 39 25 7 0 13 5 13 10 0 6
16 24 35 41 36 32 59 71 70 118 7 32 42 74 55 66 5 -3 11 -1 15 5 3 5 26 19
50 30 24 11 55 31 69 45 14 14 32 25 41 25 8 0 15 6 15 13 0 16 42 57 58 57 7
0 12 8 12 18 0 10 5 23 11 29 23 23 74 124 78 154 0 6 7 9 14 6 6 -2 27 11 45
29 l32 32 0 115 c0 110 -1 116 -20 114 -11 -1 -20 -4 -20 -8 0 -4 -13 -21 -30
-37 -16 -17 -30 -35 -30 -41 0 -6 -9 -16 -20 -23 -11 -7 -20 -19 -20 -27 0
-15 -166 -181 -181 -181 -4 0 -27 -18 -51 -40 -24 -22 -48 -40 -53 -40 -6 0
-16 -9 -23 -20 -7 -11 -19 -20 -27 -20 -8 0 -15 -4 -15 -8 0 -5 -26 -35 -57
-68 -32 -33 -66 -72 -76 -87 -9 -15 -24 -27 -33 -27 -8 0 -18 -8 -21 -17 -7
-20 -25 -37 -101 -100 -28 -24 -55 -43 -61 -43 -6 0 -11 -4 -11 -9 0 -5 -14
-14 -31 -21 -17 -7 -44 -30 -61 -51 -16 -20 -42 -40 -56 -44 -14 -3 -42 -14
-61 -23 -20 -9 -54 -16 -76 -15 -22 1 -50 2 -62 2 -17 1 -25 10 -32 39 -11 40
-7 128 8 180 6 18 6 43 2 55 -5 12 -6 27 -4 33 2 6 -5 14 -17 17 -14 3 -20 14
-22 34 -2 51 -3 54 -16 62 -9 5 -11 20 -6 48 4 25 2 43 -5 47 -11 7 5 55 23
67 5 4 6 12 2 17 -9 15 15 51 29 46 11 -5 66 24 111 56 12 8 25 26 29 40 l7
25 -28 -27 c-29 -26 -128 -78 -151 -78 -17 0 -53 50 -53 74 0 31 13 46 46 52
16 3 36 11 44 19 14 12 70 16 70 5 0 -3 23 -6 50 -7 62 -3 65 10 15 66 -39 43
-42 51 -19 51 8 0 13 4 9 9 -3 5 -1 12 5 16 5 3 10 24 10 46 0 21 5 47 11 57
8 13 7 26 -3 51 l-14 34 -17 -80 c-12 -56 -25 -89 -43 -108 -19 -21 -24 -34
-19 -55 5 -24 2 -30 -26 -44 -38 -19 -95 -21 -101 -3 -3 6 -3 29 0 51 4 31 10
40 36 51 29 12 54 34 69 61 4 6 -2 22 -13 34 -23 26 -24 47 -9 145 15 93 18
128 18 203 1 47 4 62 16 62 9 0 16 14 20 38 3 20 10 45 16 54 5 10 9 26 9 36
0 10 5 23 12 30 13 13 32 17 25 5 -3 -5 2 -15 11 -23 14 -13 15 -12 9 3 -4 11
-3 16 4 12 35 -22 53 70 24 125 -9 17 -13 30 -10 30 3 0 -6 18 -21 39 -20 31
-23 43 -15 59 6 11 13 46 15 79 3 32 12 72 21 89 8 16 15 40 15 54 0 36 23 96
48 127 12 15 22 33 22 40 0 7 6 13 13 13 8 0 8 3 -2 9 -11 7 -12 15 -3 38 6
15 14 53 18 83 4 30 9 64 11 75 2 11 5 67 6 125 1 74 6 108 15 116 11 8 11 12
-2 23 -18 15 -21 48 -7 84 6 16 6 39 0 63 -29 109 -51 182 -64 204 -42 75 -76
156 -72 171 3 9 -6 24 -19 34 -25 18 -32 45 -13 45 6 0 3 7 -5 16 -9 8 -20 13
-25 10 -14 -9 -22 37 -8 46 9 6 8 12 -5 22 -10 7 -18 16 -18 20 0 9 -38 46
-48 46 -12 0 -41 37 -35 44 4 3 -2 15 -12 26 -10 11 -13 20 -7 20 6 0 24 12
39 26 l28 27 -32 -6 c-45 -9 -78 11 -80 48 -4 57 -5 70 -9 93 -3 13 -9 20 -14
17 -6 -3 -7 1 -4 9 4 11 0 16 -10 16 -9 0 -16 4 -16 9 0 5 -9 11 -20 14 -19 5
-25 27 -23 84 1 13 -6 23 -18 26 -15 4 -19 15 -20 54 -1 55 -17 109 -18 61 -1
-22 -6 -28 -23 -28 -15 0 -19 3 -11 8 10 6 10 15 1 40 -7 18 -15 32 -19 32 -3
0 -19 18 -34 40 -15 22 -33 40 -40 40 -14 0 -51 50 -38 50 5 0 0 5 -9 11 -10
5 -15 16 -12 24 4 10 -1 15 -16 15 -11 0 -19 4 -16 9 7 11 -30 36 -69 45 -16
4 -62 23 -101 42 -39 19 -78 34 -86 34 -8 0 -35 13 -60 29 l-46 29 -759 1
c-511 1 -753 -2 -743 -9z m670 -1131 c0 6 5 11 10 11 6 0 10 -10 10 -21 0 -19
-4 -21 -35 -16 -19 3 -35 2 -35 -4 0 -5 11 -9 25 -9 14 0 25 -4 25 -9 0 -15
-29 -34 -43 -28 -11 4 -47 -24 -47 -36 0 -1 25 -3 56 -4 48 -2 63 3 112 34 31
20 60 41 65 47 5 8 10 7 16 -3 7 -11 10 -10 14 5 4 17 6 17 12 -3 5 -15 15
-23 30 -23 14 0 26 -9 33 -25 7 -14 20 -25 31 -25 13 0 18 -5 15 -14 -3 -9 6
-17 25 -24 24 -9 29 -8 25 3 -5 11 1 12 33 3 21 -6 49 -10 62 -10 13 1 64 -9
115 -22 50 -13 109 -27 131 -32 23 -4 32 -9 23 -11 -10 -3 -18 -9 -18 -14 0
-16 18 -10 37 14 18 22 53 26 53 5 0 -6 9 -8 20 -5 26 7 45 -16 32 -40 -11
-19 1 -53 19 -53 6 0 7 5 4 10 -8 13 4 13 44 -1 30 -10 43 -29 20 -29 -6 0 -3
-8 7 -17 13 -13 19 -14 22 -5 4 14 22 16 22 3 0 -5 -7 -17 -16 -25 -14 -15
-14 -17 0 -22 24 -9 21 -60 -4 -67 -23 -6 -27 -37 -5 -37 8 0 15 -5 15 -11 0
-6 -9 -9 -20 -6 -13 3 -20 0 -20 -8 0 -18 20 -24 48 -14 19 7 25 4 34 -16 9
-19 16 -23 35 -19 17 5 23 2 23 -9 0 -9 8 -20 17 -26 10 -5 14 -13 10 -17 -4
-5 -16 -4 -25 2 -9 6 -32 10 -50 8 -17 -1 -35 2 -38 7 -10 16 -24 9 -34 -16
-5 -14 -14 -25 -20 -25 -5 0 -10 -6 -10 -14 0 -9 -7 -12 -20 -9 -35 9 -37 -26
-2 -58 25 -23 40 -29 76 -29 42 0 46 -2 46 -24 0 -18 6 -25 22 -28 14 -2 24
-11 26 -23 2 -11 10 -25 18 -32 10 -7 12 -13 5 -18 -16 -9 -13 -25 3 -25 8 0
22 -10 30 -22 14 -19 14 -23 -2 -34 -9 -7 -21 -9 -27 -6 -5 4 -20 7 -33 7 -16
1 -21 -3 -17 -15 5 -15 -8 -17 -109 -17 -64 0 -113 3 -111 7 2 4 -13 4 -34 0
-39 -7 -56 -17 -94 -58 -16 -17 -23 -19 -29 -10 -6 10 -12 8 -23 -6 -8 -11
-15 -25 -15 -30 0 -6 4 -4 10 4 8 12 10 12 16 -3 3 -9 3 -24 0 -33 -11 -27 6
-38 20 -13 13 24 13 24 14 -11 l1 -35 19 41 c10 23 23 45 28 48 14 8 25 -28
18 -56 -3 -13 -3 -17 0 -10 5 10 10 10 24 -3 17 -15 21 -16 41 -2 20 14 24 14
48 0 17 -11 22 -12 14 -3 -19 20 -16 32 6 25 11 -3 22 -1 25 4 4 6 13 8 22 4
12 -5 12 -7 -3 -19 -11 -8 -13 -14 -5 -14 55 -5 95 -1 117 14 23 15 27 15 41
1 19 -18 19 -18 45 -2 17 9 23 9 26 0 3 -9 12 -9 29 -2 40 15 64 12 57 -8 -5
-14 -1 -15 30 -10 25 4 39 1 48 -9 8 -10 8 -14 0 -14 -6 0 -11 -4 -11 -8 0 -4
19 -9 42 -9 28 -2 47 -8 55 -20 7 -10 17 -23 23 -30 5 -7 10 -20 10 -31 0 -10
5 -23 12 -30 9 -9 7 -20 -7 -47 -19 -33 -19 -37 -3 -80 10 -25 15 -52 12 -60
-4 -9 0 -15 9 -15 18 0 34 -82 40 -215 1 -22 6 -39 11 -37 5 2 18 -13 28 -34
21 -44 22 -48 7 -38 -9 5 -10 -9 -4 -52 4 -32 10 -61 14 -64 3 -3 7 -18 9 -35
2 -23 0 -26 -8 -15 -8 12 -10 11 -10 -7 0 -13 3 -23 8 -23 4 0 6 -31 4 -70 -3
-54 -7 -70 -18 -70 -9 0 -14 -8 -13 -17 4 -24 -10 -64 -28 -85 -8 -9 -13 -22
-11 -29 2 -7 -11 -26 -29 -42 -18 -16 -33 -37 -33 -46 0 -9 -5 -22 -12 -29 -7
-7 -9 -12 -5 -12 6 0 -18 -29 -65 -78 -18 -19 -20 -26 -10 -42 9 -15 9 -22 -1
-32 -20 -21 -14 -43 13 -47 14 -1 28 -8 31 -13 11 -18 3 -66 -14 -83 -10 -9
-17 -27 -17 -41 0 -17 -8 -27 -27 -35 l-28 -10 24 -18 c19 -15 22 -21 13 -37
-6 -10 -12 -14 -13 -9 0 6 -5 -1 -9 -15 -7 -23 -8 -22 -9 10 -1 40 -34 72 -45
43 -4 -9 -4 -25 0 -36 5 -16 3 -19 -10 -14 -13 5 -17 2 -15 -11 2 -9 -1 -28
-6 -42 -7 -24 -8 -24 -16 -5 -6 15 -8 9 -8 -22 -1 -49 -5 -53 -65 -55 -52 -3
-60 -12 -19 -23 46 -11 52 -21 40 -63 -13 -46 -46 -84 -65 -77 -12 4 -12 3 -3
-9 10 -12 10 -20 -1 -38 -35 -63 -55 -89 -71 -94 -14 -4 -15 -9 -7 -19 7 -8 7
-16 2 -19 -6 -3 -13 2 -17 12 -6 16 -7 16 -20 -1 -8 -11 -12 -24 -11 -30 2 -7
1 -9 -1 -4 -10 16 -23 6 -23 -18 0 -14 5 -25 10 -25 6 0 10 -4 10 -9 0 -5 -8
-7 -19 -4 -21 5 -37 -12 -21 -22 16 -10 12 -25 -5 -19 -9 4 -15 0 -15 -9 0 -8
-11 -22 -25 -31 -20 -13 -23 -22 -19 -45 5 -25 0 -36 -34 -69 -34 -33 -41 -36
-50 -23 -10 14 -11 14 -11 -1 -1 -10 -6 -18 -12 -18 -7 0 -9 10 -4 27 5 23 4
25 -9 14 -20 -17 -47 -10 -73 19 -19 21 -22 22 -23 8 0 -10 -3 -18 -6 -18 -4
0 -13 8 -20 18 -10 14 -15 15 -26 4 -8 -8 -9 -15 -3 -20 6 -4 11 -26 12 -50 0
-37 -1 -40 -13 -25 -7 10 -14 23 -14 29 0 6 -11 21 -25 34 l-25 23 0 -40 c0
-24 -6 -46 -15 -53 -12 -10 -15 -10 -15 1 -1 9 -5 8 -15 -5 -16 -21 -18 -16
-15 22 2 26 -8 28 -26 5 -11 -15 -13 -15 -14 -3 0 13 -1 13 -11 0 -8 -11 -12
-12 -16 -2 -2 6 -12 12 -20 12 -11 0 -14 -8 -11 -29 3 -20 -1 -32 -14 -40 -15
-9 -18 -8 -18 6 -1 15 -4 14 -23 -7 -12 -14 -33 -34 -46 -45 l-23 -20 7 33 7
34 -26 -17 -26 -17 0 36 c0 23 5 39 15 42 8 4 15 12 15 20 0 21 -18 17 -25 -7
-5 -14 -13 -19 -26 -16 -10 3 -22 1 -25 -5 -4 -6 -10 -5 -15 3 -6 10 -9 11 -9
2 0 -7 -7 -13 -15 -13 -8 0 -15 9 -15 20 0 11 -4 20 -10 20 -5 0 -10 -7 -10
-15 0 -8 -4 -15 -10 -15 -5 0 -10 8 -10 18 0 12 -5 10 -18 -10 -22 -36 -32
-35 -32 2 0 17 -4 30 -10 30 -5 0 -10 -8 -10 -19 0 -10 -7 -24 -15 -31 -13
-11 -15 -8 -16 21 l-1 34 -14 -30 -14 -30 2 30 c2 18 -2 30 -9 31 -7 1 -16 3
-20 4 -5 1 -16 1 -27 0 -11 -1 -16 3 -11 9 7 12 -17 41 -33 41 -5 0 -9 14 -10
32 0 17 -8 35 -16 40 -22 13 -20 24 7 33 20 7 19 8 -11 12 -18 2 -36 11 -39
19 -3 9 -17 20 -30 25 -15 5 -23 15 -21 26 2 13 -4 18 -23 18 -21 0 -25 3 -21
22 4 23 -3 27 -40 24 -20 -2 -25 15 -6 21 8 3 3 14 -13 30 -15 14 -29 33 -32
42 -4 9 -14 16 -22 16 -9 0 -14 4 -11 9 3 4 -6 13 -20 20 -33 15 -47 14 -41
-2 2 -7 -4 -23 -14 -36 -11 -13 -19 -20 -19 -16 0 4 -6 2 -14 -4 -9 -8 -16 -8
-20 -2 -4 5 2 14 11 20 17 9 17 11 -4 32 -18 19 -24 20 -37 9 -14 -11 -16 -9
-16 8 0 12 4 24 10 27 5 3 10 14 10 23 -1 15 -2 15 -15 -2 -19 -25 -34 -12
-42 36 l-6 41 -19 -23 -19 -24 5 70 c5 53 3 63 -5 44 -14 -33 -16 -35 -33 -17
-16 16 -12 52 10 78 18 21 31 85 16 75 -7 -4 -12 -16 -12 -28 0 -11 -9 -31
-20 -45 -20 -25 -20 -25 -20 -4 0 12 5 31 11 43 6 11 8 35 4 54 -5 30 -8 33
-20 20 -8 -8 -15 -19 -15 -25 0 -6 -5 -11 -11 -11 -8 0 -9 17 -5 54 5 34 3 56
-3 61 -7 3 -11 -2 -11 -14 0 -12 -5 -21 -11 -21 -6 0 -9 12 -7 27 2 20 8 27
21 25 10 -2 17 3 17 12 0 8 7 19 16 24 20 11 13 51 -13 77 -16 16 -17 16 -30
-1 -12 -17 -13 -17 -13 2 0 16 -2 17 -10 4 -8 -12 -10 -12 -11 5 -2 50 -10
111 -24 181 -3 12 -14 24 -25 27 -22 6 -26 31 -10 72 7 18 7 24 -1 20 -5 -4
-22 6 -37 22 -24 25 -26 35 -24 93 1 36 -3 90 -9 120 -6 30 -12 64 -13 76 -1
11 -6 27 -11 35 -5 7 -10 20 -12 28 -1 8 -6 17 -12 20 -17 11 -1 108 21 134
17 19 19 32 15 91 -4 37 -3 65 1 62 8 -8 33 74 26 86 -3 4 2 5 10 2 18 -7 21
7 6 22 -15 15 5 64 26 64 12 0 15 7 11 26 -2 14 1 31 7 37 6 7 22 34 36 60 13
26 29 47 34 47 4 0 3 7 -4 15 -15 18 -6 33 27 46 15 6 23 15 20 23 -6 15 12
26 44 26 11 0 17 5 14 10 -3 6 -1 10 5 10 6 0 30 10 53 21 37 19 62 22 192 23
83 1 168 -2 190 -7 32 -7 42 -5 52 9 11 16 17 16 55 4 24 -8 49 -18 57 -24 12
-9 13 -8 9 5 -5 13 3 16 55 15 l62 -1 -3 43 c-3 33 0 42 12 42 12 0 14 -7 9
-32 -5 -26 -4 -30 10 -25 12 5 17 1 17 -13 0 -34 18 -22 22 15 2 19 2 32 0 30
-2 -2 -14 7 -27 21 -12 13 -33 24 -47 24 -13 0 -29 5 -36 12 -15 15 -114 14
-332 -4 -8 0 -18 -6 -22 -12 -4 -6 -10 -7 -14 -3 -4 3 -2 13 5 21 19 23 -47
30 -95 10 -26 -11 -39 -13 -42 -5 -2 6 -12 11 -23 11 -12 0 -19 7 -19 19 0 20
-39 31 -114 31 -29 0 -37 -3 -33 -14 4 -9 -2 -17 -13 -21 -22 -7 -43 2 -35 15
3 5 6 25 7 45 1 23 6 35 15 35 10 0 12 6 8 20 -4 13 -2 20 7 20 7 0 18 8 25
19 10 17 8 19 -19 25 -30 6 -31 7 -13 26 10 11 15 23 12 26 -9 9 -37 -22 -37
-40 0 -8 -4 -18 -10 -21 -6 -4 -10 13 -10 45 0 47 2 51 20 45 21 -7 27 4 10
21 -6 6 -1 23 16 48 24 35 25 41 13 64 l-14 25 -3 -24 c-6 -44 -22 -45 -22 -1
0 35 -3 42 -19 42 -11 0 -23 4 -26 10 -11 19 17 131 39 152 25 24 58 38 71 30
15 -9 45 -10 45 -1 0 4 -5 9 -12 11 -18 6 20 44 62 62 l35 15 -42 1 c-51 0
-58 21 -15 42 36 19 76 42 82 48 16 16 61 31 77 26 12 -4 41 3 69 15 37 16 61
19 97 15 40 -4 47 -3 38 8 -9 11 1 14 51 19 34 3 64 10 66 16 2 5 9 8 16 5 7
-3 26 2 42 11 16 8 40 15 53 15 17 0 22 4 17 16 -9 24 23 57 41 43 9 -9 13 -9
13 0z m-1710 -1774 c10 -12 10 -43 0 -158 -13 -150 -20 -189 -36 -194 -6 -2
-16 8 -24 22 -21 40 -22 22 -1 -27 14 -33 19 -67 18 -138 l0 -93 -19 69 c-31
111 -45 157 -58 189 -14 38 -20 89 -21 199 0 88 12 127 30 97 7 -11 12 -8 21
10 7 13 18 27 24 31 19 13 53 9 66 -7z m120 -70 c38 -20 80 -76 80 -107 0 -54
12 -88 31 -88 25 0 24 -28 -1 -48 -26 -21 -45 -92 -24 -92 7 0 24 16 38 36 27
40 41 32 31 -19 l-6 -32 21 24 c18 21 23 22 31 10 5 -7 9 -26 9 -41 0 -15 5
-30 10 -33 6 -3 8 -29 6 -56 -2 -27 0 -52 5 -54 10 -7 23 -89 16 -107 -4 -13
-57 90 -57 111 0 6 -4 19 -9 29 -5 9 -15 32 -21 49 -7 18 -17 30 -22 27 -15
-9 0 -95 21 -124 10 -14 21 -35 25 -46 6 -20 2 -22 -59 -29 l-66 -7 -39 44
c-30 34 -41 41 -51 31 -17 -17 5 -58 43 -81 23 -13 27 -22 25 -48 -3 -26 -1
-31 14 -27 10 3 25 16 33 28 13 20 20 22 43 15 48 -14 83 -35 83 -48 0 -21
-62 -53 -95 -49 -16 3 -38 1 -47 -4 -24 -13 -75 8 -60 23 21 21 13 37 -20 46
-60 15 -118 143 -118 260 0 29 9 92 19 140 10 48 25 125 32 171 11 72 27 111
45 111 3 0 18 -7 34 -15z m290 -787 c12 -19 19 -46 18 -63 -3 -26 -8 -31 -43
-37 -22 -4 -72 -7 -110 -7 -65 -1 -75 2 -125 35 -65 42 -56 34 -64 60 -5 15
-2 24 11 28 10 4 19 2 21 -3 5 -15 123 -12 192 4 79 18 78 18 100 -17z m234
-1467 c-4 -24 -2 -41 5 -45 24 -15 5 -96 -22 -96 -7 0 -17 -14 -22 -32 -11
-34 -44 -61 -61 -50 -6 4 -14 21 -18 37 -6 26 0 37 44 84 62 66 69 90 15 55
-37 -24 -47 -8 -19 33 24 36 62 63 77 56 4 -2 4 -21 1 -42z"/>
<path d="M3248 3153 c-16 -8 -28 -18 -28 -24 0 -5 -6 -9 -13 -9 -7 0 -23 -11
-35 -25 -12 -13 -32 -27 -45 -30 -13 -4 -31 -21 -41 -40 -16 -29 -17 -43 -8
-130 6 -53 18 -108 26 -120 13 -19 13 -27 3 -37 -6 -7 -12 -22 -12 -33 0 -12
-6 -19 -14 -17 -23 5 -58 -6 -76 -24 -14 -15 -12 -17 21 -35 20 -10 40 -16 45
-14 4 3 20 -6 36 -21 20 -18 28 -36 29 -62 1 -25 8 -40 23 -50 11 -8 21 -23
21 -33 0 -10 11 -26 26 -35 14 -9 23 -23 20 -30 -3 -7 -1 -16 4 -19 6 -4 10
-15 10 -26 0 -14 5 -19 18 -17 18 4 52 -20 52 -37 0 -20 41 -48 53 -36 19 19
36 12 53 -21 10 -18 19 -28 21 -21 5 15 -15 55 -70 134 -24 35 -48 79 -55 97
-11 32 -11 32 11 17 12 -8 25 -15 29 -15 17 0 7 34 -19 65 -53 64 -90 120 -97
147 -3 15 -26 56 -50 90 -24 35 -46 74 -49 88 -3 14 -9 36 -13 48 -6 22 -5 23
15 11 11 -8 21 -22 21 -31 0 -10 5 -18 11 -18 7 0 9 -9 6 -21 -4 -15 -2 -19 9
-15 9 3 14 -1 14 -14 0 -15 7 -20 25 -20 21 0 25 5 25 30 0 20 -5 30 -15 30
-18 0 -59 76 -51 96 3 8 11 14 18 14 7 0 18 8 25 19 12 20 154 123 210 154 18
9 53 17 77 17 25 0 48 5 52 11 6 11 -52 7 -131 -9 -16 -3 -42 -5 -57 -5 -15 0
-26 -3 -23 -7 3 -6 -47 -6 -100 -1 -19 2 -19 3 3 13 12 6 22 17 22 25 0 7 -1
13 -2 12 -2 -1 -15 -8 -30 -16z"/>
<path d="M3620 3140 c-22 -5 -23 -7 -7 -13 10 -4 31 -7 46 -7 38 0 92 -20 85
-31 -3 -5 -17 -9 -32 -8 -41 1 -144 -9 -177 -19 -95 -26 -125 -37 -125 -44 0
-4 -7 -8 -15 -8 -9 0 -47 -21 -85 -47 -49 -34 -69 -54 -70 -70 0 -30 8 -33
107 -38 48 -2 101 -8 116 -14 16 -6 40 -11 55 -11 15 0 46 -11 69 -24 36 -21
55 -24 83 -16 3 1 67 1 143 1 112 0 139 3 144 14 3 8 14 15 24 15 10 0 19 5
19 11 0 5 -4 7 -10 4 -5 -3 -10 -1 -10 4 0 6 6 11 13 11 8 0 7 4 -3 10 -13 8
-11 11 8 16 12 4 22 13 22 21 0 16 -23 43 -37 43 -11 0 -43 37 -43 50 0 6 7
13 15 16 8 4 15 12 15 20 0 17 -40 55 -52 48 -4 -3 -23 3 -41 14 -56 35 -204
65 -257 52z m164 -152 c1 -2 12 -16 24 -32 12 -16 22 -34 22 -41 0 -14 -91
-60 -137 -68 -38 -7 -40 -2 -13 33 21 27 28 104 10 115 -5 3 -10 13 -10 21 0
11 9 10 51 -6 28 -10 52 -20 53 -22z"/>
<path d="M2397 3128 c17 -6 44 -24 60 -41 l28 -30 -30 8 c-34 8 -40 9 -75 6
l-25 -2 25 -14 c31 -18 25 -18 -20 -4 -19 7 -81 12 -137 13 -111 1 -148 15
-100 37 15 7 27 16 27 20 0 18 -125 -13 -198 -48 -41 -20 -53 -31 -51 -47 4
-31 -27 -83 -53 -90 -13 -3 -36 -17 -53 -31 -28 -23 -28 -25 -8 -25 27 0 38
-16 23 -35 -8 -10 -8 -15 1 -20 6 -4 15 -1 20 6 6 10 9 2 9 -23 0 -21 5 -39
10 -39 43 -6 71 -2 75 10 3 9 16 12 37 9 18 -3 45 -2 59 2 16 5 31 4 37 -2 6
-6 17 -6 32 2 18 9 24 9 30 0 6 -9 13 -9 28 -1 11 6 32 11 46 11 14 0 26 4 26
9 0 4 19 7 43 5 50 -3 146 13 166 29 7 6 49 12 93 13 83 2 119 16 86 35 -10 6
-18 16 -18 24 0 8 -18 27 -40 41 -38 26 -57 63 -25 50 18 -7 21 24 3 42 -7 7
-9 12 -5 12 3 0 -5 12 -18 26 -13 14 -45 32 -71 40 -53 16 -86 18 -37 2z m101
-196 c13 -20 13 -25 1 -37 -15 -14 -130 -45 -167 -45 l-22 0 21 40 c16 30 20
52 16 80 -3 25 -1 41 7 43 17 6 127 -55 144 -81z"/>
<path d="M2725 2423 c-22 -8 -43 -21 -48 -29 -4 -7 -12 -14 -17 -14 -13 0 -66
-52 -79 -78 -24 -46 -41 -118 -41 -176 0 -54 3 -61 35 -92 50 -47 156 -74 163
-41 2 11 -3 17 -15 17 -10 0 -25 4 -33 10 -12 7 -11 12 9 29 23 20 78 22 175
7 48 -8 59 -14 52 -31 -3 -8 4 -25 16 -40 25 -32 18 -40 -35 -41 -22 0 -43 -6
-45 -12 -2 -6 -19 -14 -38 -18 -24 -4 -34 -12 -34 -25 0 -10 5 -21 10 -24 17
-11 11 -42 -10 -48 -21 -5 -46 24 -32 37 3 4 -1 4 -11 0 -12 -4 -17 -1 -17 10
0 18 -2 19 -24 10 -9 -3 -16 -15 -16 -26 0 -12 -6 -18 -17 -16 -14 2 -18 -4
-18 -27 0 -16 -6 -39 -13 -50 -11 -18 -12 -18 -6 8 5 22 3 27 -14 27 -11 0
-22 -3 -24 -7 -5 -12 -75 -63 -86 -63 -13 0 -39 -32 -44 -55 -4 -17 -6 -16
-12 8 -10 35 -16 34 -45 -9 -14 -20 -30 -33 -38 -30 -9 4 -13 -3 -13 -20 0
-14 -5 -24 -12 -23 -29 3 -39 -3 -63 -42 -33 -51 -44 -80 -24 -61 24 22 31 13
10 -14 -12 -15 -21 -33 -21 -40 0 -21 28 -17 35 5 3 11 19 22 35 26 17 4 30
11 30 16 0 6 6 7 13 2 6 -4 20 -6 30 -5 13 3 17 -4 17 -31 0 -27 6 -39 27 -52
14 -10 41 -33 60 -51 19 -19 40 -34 47 -34 7 0 21 -9 31 -20 10 -11 24 -20 32
-20 7 0 13 -4 13 -9 0 -5 9 -11 20 -14 11 -3 20 -12 20 -21 0 -12 8 -16 33
-15 42 2 87 -16 87 -36 0 -9 7 -18 15 -21 20 -8 19 -24 -1 -24 -8 0 -12 5 -9
10 4 6 -16 10 -54 10 -32 0 -66 3 -75 6 -9 3 -16 2 -16 -4 0 -6 11 -14 24 -19
14 -4 35 -23 48 -42 20 -31 29 -35 70 -36 27 -2 54 -8 63 -15 8 -6 19 -9 24
-6 15 10 24 -13 11 -29 -10 -12 -9 -15 5 -15 13 0 16 -6 13 -25 -6 -30 7 -33
22 -6 12 23 55 17 46 -6 -3 -8 -6 -17 -6 -19 0 -2 -11 -4 -25 -4 -16 0 -25 -6
-25 -15 0 -32 69 -2 70 31 1 14 37 54 49 54 17 0 13 -28 -5 -38 -15 -8 -15
-10 0 -15 17 -7 41 27 31 43 -4 6 1 13 9 16 8 3 18 15 22 26 5 18 7 18 24 3
18 -16 20 -16 36 -1 11 12 30 16 61 14 35 -1 50 3 62 18 24 29 88 74 95 67 3
-4 6 1 6 9 0 8 9 27 20 41 11 14 20 38 20 54 0 16 4 33 10 39 5 5 22 34 37 64
17 33 45 67 71 87 37 28 48 31 88 27 26 -2 52 -7 58 -11 6 -4 5 1 -3 10 -14
17 -10 21 22 18 23 -3 22 21 -3 49 -11 13 -20 29 -20 36 0 15 -41 87 -52 92
-4 2 -24 19 -45 38 -21 18 -43 34 -49 34 -6 0 -17 6 -24 14 -6 8 -17 13 -24
10 -7 -3 -39 20 -71 50 -32 31 -61 56 -65 56 -4 0 -14 18 -23 41 -9 22 -20 38
-25 35 -14 -8 -35 21 -28 39 3 8 17 15 30 15 56 0 143 62 152 108 8 38 -7 42
-26 7 -17 -31 -52 -33 -65 -3 -6 13 -24 25 -45 30 -63 16 -66 18 -50 29 11 8
9 8 -10 3 -30 -8 -58 -34 -38 -34 7 -1 2 -7 -12 -15 -14 -8 -21 -14 -16 -15 5
0 -6 -14 -24 -31 -39 -38 -91 -55 -120 -39 -11 6 -20 8 -20 5 0 -6 -61 33 -70
46 -17 22 -76 39 -133 39 -72 0 -128 -19 -151 -51 -12 -18 -19 -20 -43 -12
-69 23 -69 127 -1 195 15 15 28 19 53 15 25 -4 38 -1 50 14 10 10 26 21 37 25
10 3 17 11 15 17 -2 7 7 33 20 58 13 26 23 52 23 58 0 15 -46 12 -95 -6z m320
-493 c10 -11 20 -37 22 -57 2 -21 5 -43 5 -49 1 -6 11 -9 23 -6 13 2 26 -1 29
-7 4 -6 0 -11 -9 -11 -12 0 -15 -5 -11 -16 6 -17 -4 -16 -46 1 -11 4 -18 3
-18 -4 0 -6 9 -11 20 -11 10 0 23 -6 27 -12 4 -7 17 -18 27 -23 40 -23 23 -94
-24 -95 -8 0 -28 -7 -45 -16 -41 -22 -74 -20 -120 7 -22 13 -52 22 -69 21 -29
-3 -29 -2 -12 16 9 11 16 26 14 33 -2 8 4 14 12 14 8 0 18 4 21 9 4 5 17 10
30 11 13 1 27 3 32 4 4 0 7 10 7 20 0 11 5 23 11 27 8 5 8 9 -1 14 -7 4 -9 13
-6 19 10 16 26 14 26 -4 0 -18 12 -19 28 -3 18 18 15 28 -10 29 -18 1 -19 2
-5 6 9 2 15 9 12 14 -4 5 -1 9 4 9 6 0 11 7 11 15 0 12 -7 14 -27 9 -16 -4
-25 -3 -21 1 4 5 3 14 -3 21 -28 34 36 48 66 14z m-299 -181 c-3 -17 -3 -42 0
-56 6 -22 11 -25 40 -20 30 5 34 3 34 -17 0 -19 -13 -27 -92 -55 -155 -55
-170 -61 -200 -83 -16 -11 -32 -18 -35 -15 -7 8 7 67 17 67 4 0 11 11 14 25 4
14 11 25 16 25 5 0 17 16 26 36 12 26 19 32 25 22 7 -11 11 -10 19 2 10 13 11
13 9 0 -3 -29 1 -41 11 -35 6 3 13 -1 16 -9 3 -9 10 -16 15 -16 14 0 11 27 -4
42 -12 11 -12 16 0 26 7 8 13 8 13 2 0 -24 21 -6 46 40 15 28 29 50 32 50 2 0
2 -14 -2 -31z m610 -352 c-3 -17 -5 -38 -5 -45 -1 -7 -7 -12 -13 -11 -27 3
-58 -14 -58 -32 0 -11 -4 -19 -10 -19 -5 0 -10 -6 -10 -14 0 -8 -5 -18 -12
-22 -10 -7 -21 -9 -93 -18 -16 -2 -41 -8 -55 -14 -29 -11 -33 -10 -36 21 -1
12 -3 24 -3 26 -1 2 -9 -3 -18 -11 -10 -9 -48 -18 -87 -22 -66 -7 -71 -6 -111
23 -23 17 -45 28 -48 24 -3 -3 -9 6 -12 20 -5 16 -12 23 -23 21 -12 -3 -23 7
-34 31 -17 34 -17 35 2 35 11 0 20 -7 20 -15 0 -13 5 -13 40 1 22 9 53 14 68
11 15 -3 34 -2 42 3 12 7 47 -3 102 -31 19 -9 48 -2 48 12 0 25 118 52 247 56
l63 2 -4 -32z"/>
</g>
</svg>
