<?xml version="1.0" standalone="no"?>
<!DOCTYPE svg PUBLIC "-//W3C//DTD SVG 20010904//EN"
 "http://www.w3.org/TR/2001/REC-SVG-20010904/DTD/svg10.dtd">
<svg version="1.0" xmlns="http://www.w3.org/2000/svg"
 width="1815.000000pt" height="1152.000000pt" viewBox="0 0 1815.000000 1152.000000"
 preserveAspectRatio="xMidYMid meet">
<metadata>
Created by potrace 1.13, written by Peter Selinger 2001-2015
</metadata>
<g transform="translate(0.000000,1152.000000) scale(0.100000,-0.100000)"
fill="#000000" stroke="none">
<path d="M6805 9938 c-11 -6 -27 -20 -35 -31 -10 -12 -33 -21 -65 -24 -30 -3
-63 -15 -81 -29 -17 -13 -53 -29 -80 -35 -77 -19 -134 -47 -179 -87 -83 -73
-127 -107 -156 -120 -17 -7 -27 -17 -23 -23 9 -15 -27 -78 -48 -85 -9 -3 -50
-41 -89 -85 -40 -43 -77 -79 -82 -79 -18 0 -78 -51 -71 -61 3 -6 -2 -19 -12
-30 -11 -13 -17 -37 -18 -76 -1 -32 -5 -64 -10 -71 -4 -8 -10 -32 -12 -55 -2
-23 -6 -65 -10 -93 -5 -45 -4 -53 14 -66 11 -7 24 -26 27 -41 4 -15 13 -27 20
-27 23 0 27 -17 27 -128 -1 -61 6 -137 15 -177 15 -65 18 -128 12 -215 -1 -19
4 -71 11 -115 9 -58 10 -140 5 -295 -7 -228 -3 -269 39 -426 13 -49 27 -130
31 -179 3 -49 11 -97 16 -106 5 -10 9 -29 9 -43 0 -14 5 -28 10 -31 6 -3 10
-16 10 -29 0 -56 118 -336 185 -436 33 -51 100 -141 114 -153 5 -5 23 -21 39
-35 16 -15 45 -35 65 -46 33 -17 37 -24 51 -90 8 -39 18 -99 22 -133 l6 -61
-56 -70 c-32 -39 -87 -95 -124 -126 -37 -30 -85 -73 -106 -95 -43 -44 -93 -66
-126 -56 -22 7 -27 34 -7 39 6 2 31 9 55 15 34 10 46 19 57 43 11 28 10 42
-10 112 -34 124 -68 176 -116 176 -9 0 -24 11 -33 25 -9 14 -40 37 -69 51 -28
15 -63 38 -77 51 -28 28 -100 63 -129 63 -11 0 -39 10 -61 21 -60 32 -121 21
-246 -40 -106 -53 -177 -115 -190 -167 -4 -14 -2 -46 3 -71 8 -35 7 -50 -6
-76 -9 -18 -25 -55 -35 -82 -10 -28 -47 -107 -81 -176 -75 -150 -81 -172 -61
-230 22 -62 21 -67 -21 -75 -39 -7 -136 -51 -188 -86 -16 -12 -76 -67 -132
-125 -79 -80 -105 -113 -114 -145 -19 -73 -125 -357 -192 -518 -98 -235 -202
-546 -251 -750 -30 -129 -68 -388 -82 -564 l-7 -89 27 7 c22 5 29 1 46 -26 25
-41 22 -49 -21 -63 -43 -15 -48 -37 -15 -75 32 -38 23 -74 -34 -136 -22 -24
-40 -54 -40 -66 -2 -78 -12 -175 -27 -250 -13 -70 -14 -96 -6 -135 7 -29 8
-54 2 -65 -15 -27 -10 -73 9 -99 24 -31 45 -85 39 -96 -21 -35 -27 -226 -10
-311 7 -35 11 -68 7 -73 -3 -5 -1 -9 5 -9 11 0 32 -56 61 -162 15 -54 21 -104
19 -160 -2 -105 6 -150 37 -214 34 -71 94 -125 199 -179 50 -26 101 -55 115
-65 85 -60 164 -64 308 -15 111 38 141 54 188 100 26 26 104 147 104 161 0 3
9 17 20 31 18 23 20 24 20 6 0 -11 -4 -33 -10 -49 -5 -16 -21 -96 -35 -179
-14 -82 -39 -229 -56 -325 -17 -96 -36 -209 -44 -250 -7 -41 -29 -162 -49
-268 -20 -106 -36 -197 -36 -203 0 -5 868 -9 2298 -9 l2299 0 7 119 c3 66 6
281 6 480 0 208 4 362 9 366 14 8 126 -56 251 -142 14 -10 28 -23 33 -30 11
-18 108 -70 144 -78 37 -7 139 16 181 42 55 35 200 153 241 198 57 62 99 130
117 191 15 54 19 98 29 334 3 80 8 177 11 215 3 39 5 109 5 158 l0 87 42 27
c60 39 92 77 128 152 34 74 35 117 0 194 -33 74 -54 150 -53 189 1 21 -5 58
-13 82 -20 57 -22 147 -6 276 19 153 17 508 -4 655 -9 66 -18 134 -20 150 -8
64 -44 229 -80 362 -38 143 -191 559 -285 778 -9 22 -23 56 -30 75 -7 19 -52
116 -101 216 -104 212 -134 246 -297 338 -113 63 -483 229 -602 268 -41 14
-149 55 -240 91 -91 36 -186 71 -210 77 -33 9 -53 22 -75 51 -16 21 -50 54
-75 72 -29 21 -57 55 -77 93 -32 60 -109 153 -174 211 -34 31 -39 32 -170 43
-74 6 -141 13 -149 16 -33 9 -110 228 -130 364 -5 36 -10 101 -10 145 0 69 5
92 35 165 19 46 35 89 35 95 0 5 6 21 14 35 80 150 114 219 119 240 5 19 23
33 75 57 78 36 116 81 131 153 5 25 16 72 26 105 9 33 20 119 25 190 8 121 20
184 42 212 14 18 28 237 21 340 -5 73 -3 99 10 126 19 39 23 91 12 162 -7 55
-7 130 1 158 3 9 1 17 -5 17 -6 0 -11 10 -11 22 0 18 -52 113 -71 128 -3 3
-18 30 -32 60 -15 30 -40 75 -57 100 -16 25 -43 70 -59 100 -16 30 -42 69 -57
86 -16 17 -60 65 -98 107 -38 42 -78 79 -90 83 -37 11 -106 47 -106 56 0 4
-12 8 -26 8 -23 0 -25 3 -19 30 6 26 3 30 -20 36 -21 5 -23 9 -14 21 15 17 3
30 -30 35 -18 2 -28 14 -40 46 -13 36 -19 42 -46 43 -16 1 -45 3 -62 5 -18 1
-35 -2 -39 -7 -9 -16 -54 -10 -76 11 -13 12 -29 18 -40 14 -10 -3 -33 3 -51
14 -53 32 -83 35 -135 12 -44 -20 -53 -20 -129 -9 -74 11 -87 10 -122 -5 -43
-20 -67 -18 -164 15 -65 22 -93 23 -122 7z m1455 -5718 c19 -20 33 -51 41 -88
7 -31 15 -61 19 -65 4 -5 35 1 68 12 91 31 139 28 190 -11 53 -41 58 -80 13
-105 -26 -15 -89 -99 -80 -107 2 -2 28 -16 56 -31 59 -30 113 -86 113 -116 0
-45 -107 -109 -182 -109 -27 0 -31 -22 -14 -74 20 -59 20 -135 1 -163 -31 -45
-109 -34 -194 27 -16 11 -34 20 -39 20 -6 0 -34 25 -63 55 -29 31 -63 58 -75
61 -13 3 -24 15 -26 27 -2 12 -19 29 -44 41 -37 18 -40 23 -27 35 12 11 20 12
34 3 10 -7 50 -12 87 -12 60 0 74 4 105 28 36 27 45 48 52 120 3 36 -1 46 -39
86 -40 44 -45 46 -97 46 -49 0 -59 -4 -101 -41 -27 -22 -48 -47 -48 -54 0 -8
-9 -17 -20 -20 -11 -3 -20 -14 -20 -23 1 -15 3 -14 15 2 14 19 15 18 15 -16 0
-19 3 -50 6 -67 5 -24 3 -31 -10 -31 -10 0 -16 8 -16 23 0 34 -29 70 -51 64
-16 -4 -18 -1 -12 21 3 15 11 29 17 31 27 11 67 62 64 83 -3 20 -8 23 -46 21
-24 -1 -50 -7 -57 -13 -8 -7 -22 -9 -33 -6 -10 4 -44 -3 -75 -13 -31 -11 -57
-18 -57 -15 0 13 137 64 173 65 23 0 57 5 76 12 28 10 36 20 47 57 8 25 14 53
14 63 0 33 -117 86 -161 72 -16 -5 -19 -12 -15 -31 15 -58 -50 -107 -88 -68
-30 29 -14 61 48 98 56 32 86 33 155 1 30 -14 62 -23 71 -20 9 3 25 23 35 45
10 22 33 56 52 75 44 46 84 47 123 5z m-41 -384 c15 -18 5 -84 -17 -108 -11
-14 -12 -21 -3 -32 7 -8 8 -17 3 -20 -14 -9 -132 5 -138 16 -3 5 -3 30 1 54 6
40 12 49 53 75 50 32 83 37 101 15z"/>
<path d="M8153 4198 c-38 -42 -73 -103 -73 -125 0 -24 75 -83 105 -83 9 0 36
12 61 26 35 21 44 31 44 54 0 52 -12 88 -40 119 -34 37 -68 40 -97 9z"/>
<path d="M8385 4054 c-61 -22 -67 -32 -58 -94 l8 -55 63 -17 c35 -9 70 -14 78
-11 7 3 23 20 34 39 20 32 20 34 4 59 -16 25 -16 29 -1 54 9 16 14 31 10 35
-11 11 -97 5 -138 -10z"/>
<path d="M8435 3780 l-49 -49 19 -35 c42 -78 45 -80 108 -66 147 33 157 101
27 179 -19 11 -40 21 -45 21 -6 0 -33 -22 -60 -50z"/>
<path d="M8303 3578 c-15 -21 -45 -127 -38 -138 13 -22 112 -70 142 -70 44 0
68 36 60 88 -18 118 -29 132 -102 132 -30 0 -56 -5 -62 -12z"/>
</g>
</svg>
